<?xml version="1.0" encoding="UTF-8" standalone="no"?>
<svg
   xmlns:dc="http://purl.org/dc/elements/1.1/"
   xmlns:cc="http://creativecommons.org/ns#"
   xmlns:rdf="http://www.w3.org/1999/02/22-rdf-syntax-ns#"
   xmlns:svg="http://www.w3.org/2000/svg"
   xmlns="http://www.w3.org/2000/svg"
   xmlns:sodipodi="http://sodipodi.sourceforge.net/DTD/sodipodi-0.dtd"
   xmlns:inkscape="http://www.inkscape.org/namespaces/inkscape"
   version="1.1"
   width="1024"
   height="1024"
   viewBox="294 90.28333 1024 1024"
   id="svg132"
   sodipodi:docname="favicon.svg"
   inkscape:version="1.0.1 (3bc2e813f5, 2020-09-07)"
   inkscape:export-filename="/tmp/favicon.png"
   inkscape:export-xdpi="96"
   inkscape:export-ydpi="96">
  <metadata
     id="metadata138">
    <rdf:RDF>
      <cc:Work
         rdf:about="">
        <dc:format>image/svg+xml</dc:format>
        <dc:type
           rdf:resource="http://purl.org/dc/dcmitype/StillImage" />
        <dc:title></dc:title>
      </cc:Work>
    </rdf:RDF>
  </metadata>
  <defs
     id="defs136" />
  <sodipodi:namedview
     pagecolor="#100e23"
     bordercolor="#666666"
     borderopacity="1"
     objecttolerance="10"
     gridtolerance="10"
     guidetolerance="10"
     inkscape:pageopacity="1"
     inkscape:pageshadow="2"
     inkscape:window-width="1855"
     inkscape:window-height="977"
     id="namedview134"
     showgrid="false"
     inkscape:pagecheckerboard="false"
     units="px"
     inkscape:zoom="0.41155824"
     inkscape:cx="636.44744"
     inkscape:cy="151.85044"
     inkscape:window-x="23"
     inkscape:window-y="15"
     inkscape:window-maximized="0"
     inkscape:current-layer="svg132" />
  <g
     stroke="none"
     stroke-width="1.76074"
     stroke-linecap="round"
     stroke-dasharray="2.34766, 5.86913"
     id="g74"
     style="font-family:none;mix-blend-mode:normal;fill:none;fill-rule:nonzero;stroke-linejoin:miter;stroke-miterlimit:10;stroke-dashoffset:0"
     transform="matrix(1.703827,0,0,1.703827,-296.37607,-134.25268)">
    <path
       transform="matrix(1.01,0,0,1.01,144.5,-70.21667)"
       d="M 200,300 V 200 h 100 v 100 z"
       fill="none"
       id="path2"
       style="stroke-width:1.12179" />
    <path
       transform="matrix(1.01,0,0,1.01,140.5,-70.21667)"
       d="M 600,300 V 200 h 100 v 100 z"
       fill="none"
       id="path4"
       style="stroke-width:1.12179" />
    <path
       transform="matrix(1.01,0,0,1.01,139.5,-70.21667)"
       d="M 700,300 V 200 h 100 v 100 z"
       fill="none"
       id="path6"
       style="stroke-width:1.12179" />
    <path
       transform="matrix(1.01,0,0,1.01,139.5,-74.21667)"
       d="M 700,700 V 600 h 100 v 100 z"
       fill="none"
       id="path8"
       style="stroke-width:1.12179" />
    <path
       transform="matrix(1.01,0,0,1.01,141.5,-75.21667)"
       d="M 500,800 V 700 h 100 v 100 z"
       fill="#670295"
       id="path10"
       style="stroke-width:1.12179" />
    <path
       transform="matrix(1.01,0,0,1.01,139.5,-75.21667)"
       d="M 700,800 V 700 h 100 v 100 z"
       fill="none"
       id="path12"
       style="stroke-width:1.12179" />
    <path
       transform="matrix(1.01,0,0,1.01,140.5,-75.21667)"
       d="M 600,800 V 700 h 100 v 100 z"
       fill="none"
       id="path14"
       style="stroke-width:1.12179" />
    <path
       transform="matrix(1.01,0,0,1.01,139.5,-71.21667)"
       d="M 700,400 V 300 h 100 v 100 z"
       fill="none"
       id="path16"
       style="stroke-width:1.12179" />
    <path
       transform="matrix(1.01,0,0,1.01,139.5,-72.21667)"
       d="M 700,500 V 400 h 100 v 100 z"
       fill="#240038"
       id="path18"
       style="stroke-width:1.12179" />
    <path
       transform="matrix(1.01,0,0,1.01,139.5,-73.21667)"
       d="M 700,600 V 500 h 100 v 100 z"
       fill="#240038"
       id="path20"
       style="stroke-width:1.12179" />
    <path
       transform="matrix(1.01,0,0,1.01,140.5,-72.21667)"
       d="M 600,500 V 400 h 100 v 100 z"
       fill="#440069"
       id="path22"
       style="stroke-width:1.12179" />
    <path
       transform="matrix(1.01,0,0,1.01,140.5,-71.21667)"
       d="M 600,400 V 300 h 100 v 100 z"
       fill="#240038"
       id="path24"
       style="stroke-width:1.12179" />
    <path
       transform="matrix(1.01,0,0,1.01,140.5,-73.21667)"
       d="M 600,600 V 500 h 100 v 100 z"
       fill="#440069"
       id="path26"
       style="stroke-width:1.12179" />
    <path
       transform="matrix(1.01,0,0,1.01,140.5,-74.21667)"
       d="M 600,700 V 600 h 100 v 100 z"
       fill="#240038"
       id="path28"
       style="stroke-width:1.12179" />
    <path
       transform="matrix(1.01,0,0,1.01,141.5,-71.21667)"
       d="M 500,400 V 300 h 100 v 100 z"
       fill="#440069"
       id="path30"
       style="stroke-width:1.12179" />
    <path
       transform="matrix(1.01,0,0,1.01,141.5,-72.21667)"
       d="M 500,500 V 400 h 100 v 100 z"
       fill="#670295"
       id="path32"
       style="stroke-width:1.12179" />
    <path
       transform="matrix(1.01,0,0,1.01,142.5,-70.21667)"
       d="M 400,300 V 200 h 100 v 100 z"
       fill="#240038"
       id="path34"
       style="stroke-width:1.12179" />
    <path
       transform="matrix(1.01,0,0,1.01,144.5,-71.21667)"
       d="M 200,400 V 300 h 100 v 100 z"
       fill="#240038"
       id="path36"
       style="stroke-width:1.12179" />
    <path
       transform="matrix(1.01,0,0,1.01,143.5,-70.21667)"
       d="M 300,300 V 200 h 100 v 100 z"
       fill="#440069"
       id="path38"
       style="stroke-width:1.12179" />
    <path
       transform="matrix(1.01,0,0,1.01,142.5,-72.21667)"
       d="M 400,500 V 400 h 100 v 100 z"
       fill="#670295"
       id="path40"
       style="stroke-width:1.12179" />
    <path
       transform="matrix(1.01,0,0,1.01,141.5,-73.21667)"
       d="M 500,600 V 500 h 100 v 100 z"
       fill="#670295"
       id="path42"
       style="stroke-width:1.12179" />
    <path
       transform="matrix(1.01,0,0,1.01,141.5,-74.21667)"
       d="M 500,700 V 600 h 100 v 100 z"
       fill="#440069"
       id="path44"
       style="stroke-width:1.12179" />
    <path
       transform="matrix(1.01,0,0,1.01,142.5,-74.21667)"
       d="M 400,700 V 600 h 100 v 100 z"
       fill="#670295"
       id="path46"
       style="stroke-width:1.12179" />
    <path
       transform="matrix(1.01,0,0,1.01,142.5,-75.21667)"
       d="M 400,800 V 700 h 100 v 100 z"
       fill="#440069"
       id="path48"
       style="stroke-width:1.12179" />
    <path
       transform="matrix(1.01,0,0,1.01,143.5,-75.21667)"
       d="M 300,800 V 700 h 100 v 100 z"
       fill="#440069"
       id="path50"
       style="stroke-width:1.12179" />
    <path
       transform="matrix(1.01,0,0,1.01,144.5,-75.21667)"
       d="M 200,800 V 700 h 100 v 100 z"
       fill="none"
       id="path52"
       style="stroke-width:1.12179" />
    <path
       transform="matrix(1.01,0,0,1.01,144.5,-74.21667)"
       d="M 200,700 V 600 h 100 v 100 z"
       fill="#440069"
       id="path54"
       style="stroke-width:1.12179" />
    <path
       transform="matrix(1.01,0,0,1.01,143.5,-74.21667)"
       d="M 300,700 V 600 h 100 v 100 z"
       fill="#670295"
       id="path56"
       style="stroke-width:1.12179" />
    <path
       transform="matrix(1.01,0,0,1.01,142.5,-73.21667)"
       d="M 400,600 V 500 h 100 v 100 z"
       fill="#b239ff"
       id="path58"
       style="stroke-width:1.12179" />
    <path
       transform="matrix(1.01,0,0,1.01,143.5,-73.21667)"
       d="M 300,600 V 500 h 100 v 100 z"
       fill="#670295"
       id="path60"
       style="stroke-width:1.12179" />
    <path
       transform="matrix(1.01,0,0,1.01,144.5,-73.21667)"
       d="M 200,600 V 500 h 100 v 100 z"
       fill="#240038"
       id="path62"
       style="stroke-width:1.12179" />
    <path
       transform="matrix(1.01,0,0,1.01,144.5,-72.21667)"
       d="M 200,500 V 400 h 100 v 100 z"
       fill="#240038"
       id="path64"
       style="stroke-width:1.12179" />
    <path
       transform="matrix(1.01,0,0,1.01,143.5,-72.21667)"
       d="M 300,500 V 400 h 100 v 100 z"
       fill="#440069"
       id="path66"
       style="stroke-width:1.12179" />
    <path
       transform="matrix(1.01,0,0,1.01,143.5,-71.21667)"
       d="M 300,400 V 300 h 100 v 100 z"
       fill="#240038"
       id="path68"
       style="stroke-width:1.12179" />
    <path
       transform="matrix(1.01,0,0,1.01,142.5,-71.21667)"
       d="M 400,400 V 300 h 100 v 100 z"
       fill="#670295"
       id="path70"
       style="stroke-width:1.12179" />
    <path
       transform="matrix(1.01,0,0,1.01,141.5,-70.21667)"
       d="M 500,300 V 200 h 100 v 100 z"
       fill="#440069"
       id="path72"
       style="stroke-width:1.12179" />
  </g>
  <g
     fill="none"
     stroke="none"
     stroke-width="0.637111"
     stroke-linecap="butt"
     stroke-dasharray="none"
     font-family="sans-serif"
     font-weight="normal"
     font-size="12px"
     text-anchor="start"
     id="g76"
     style="mix-blend-mode:normal;fill-rule:nonzero;stroke-linejoin:miter;stroke-miterlimit:10;stroke-dashoffset:0"
     transform="matrix(1.5695619,0,0,1.5696069,-169.15988,-53.134824)" />
  <g
     fill="none"
     stroke="none"
     stroke-width="0.637111"
     stroke-linecap="butt"
     stroke-dasharray="none"
     font-family="sans-serif"
     font-weight="normal"
     font-size="12px"
     text-anchor="start"
     id="g78"
     style="mix-blend-mode:normal;fill-rule:nonzero;stroke-linejoin:miter;stroke-miterlimit:10;stroke-dashoffset:0"
     transform="matrix(1.5695619,0,0,1.5696069,-169.15988,-53.134824)" />
  <g
     fill="none"
     stroke="none"
     stroke-width="0.637111"
     stroke-linecap="butt"
     stroke-dasharray="none"
     font-family="sans-serif"
     font-weight="normal"
     font-size="12px"
     text-anchor="start"
     id="g80"
     style="mix-blend-mode:normal;fill-rule:nonzero;stroke-linejoin:miter;stroke-miterlimit:10;stroke-dashoffset:0"
     transform="matrix(1.5695619,0,0,1.5696069,-169.15988,-53.134824)" />
  <g
     fill="none"
     stroke="none"
     stroke-width="0.637111"
     stroke-linecap="butt"
     stroke-dasharray="none"
     font-family="sans-serif"
     font-weight="normal"
     font-size="12px"
     text-anchor="start"
     id="g82"
     style="mix-blend-mode:normal;fill-rule:nonzero;stroke-linejoin:miter;stroke-miterlimit:10;stroke-dashoffset:0"
     transform="matrix(1.5695619,0,0,1.5696069,-169.15988,-53.134824)" />
  <g
     fill="none"
     stroke="none"
     stroke-width="0.637111"
     stroke-linecap="butt"
     stroke-dasharray="none"
     font-family="sans-serif"
     font-weight="normal"
     font-size="12px"
     text-anchor="start"
     id="g84"
     style="mix-blend-mode:normal;fill-rule:nonzero;stroke-linejoin:miter;stroke-miterlimit:10;stroke-dashoffset:0"
     transform="matrix(1.5695619,0,0,1.5696069,-169.15988,-53.134824)" />
  <g
     fill="none"
     stroke="none"
     stroke-width="0.637111"
     stroke-linecap="butt"
     stroke-dasharray="none"
     font-family="sans-serif"
     font-weight="normal"
     font-size="12px"
     text-anchor="start"
     id="g86"
     style="mix-blend-mode:normal;fill-rule:nonzero;stroke-linejoin:miter;stroke-miterlimit:10;stroke-dashoffset:0"
     transform="matrix(1.5695619,0,0,1.5696069,-169.15988,-53.134824)" />
  <g
     fill="none"
     stroke="none"
     stroke-width="0.637111"
     stroke-linecap="butt"
     stroke-dasharray="none"
     font-family="sans-serif"
     font-weight="normal"
     font-size="12px"
     text-anchor="start"
     id="g88"
     style="mix-blend-mode:normal;fill-rule:nonzero;stroke-linejoin:miter;stroke-miterlimit:10;stroke-dashoffset:0"
     transform="matrix(1.5695619,0,0,1.5696069,-169.15988,-53.134824)" />
  <g
     fill="none"
     stroke="none"
     stroke-width="0.637111"
     stroke-linecap="butt"
     stroke-dasharray="none"
     font-family="sans-serif"
     font-weight="normal"
     font-size="12px"
     text-anchor="start"
     id="g90"
     style="mix-blend-mode:normal;fill-rule:nonzero;stroke-linejoin:miter;stroke-miterlimit:10;stroke-dashoffset:0"
     transform="matrix(1.5695619,0,0,1.5696069,-169.15988,-53.134824)" />
  <g
     fill="none"
     stroke="none"
     stroke-width="0.637111"
     stroke-linecap="butt"
     stroke-dasharray="none"
     font-family="sans-serif"
     font-weight="normal"
     font-size="12px"
     text-anchor="start"
     id="g92"
     style="mix-blend-mode:normal;fill-rule:nonzero;stroke-linejoin:miter;stroke-miterlimit:10;stroke-dashoffset:0"
     transform="matrix(1.5695619,0,0,1.5696069,-169.15988,-53.134824)" />
  <g
     fill="none"
     stroke="none"
     stroke-width="0.637111"
     stroke-linecap="butt"
     stroke-dasharray="none"
     font-family="sans-serif"
     font-weight="normal"
     font-size="12px"
     text-anchor="start"
     id="g94"
     style="mix-blend-mode:normal;fill-rule:nonzero;stroke-linejoin:miter;stroke-miterlimit:10;stroke-dashoffset:0"
     transform="matrix(1.5695619,0,0,1.5696069,-169.15988,-53.134824)" />
  <g
     fill="none"
     stroke="none"
     stroke-width="0.637111"
     stroke-linecap="butt"
     stroke-dasharray="none"
     font-family="sans-serif"
     font-weight="normal"
     font-size="12px"
     text-anchor="start"
     id="g96"
     style="mix-blend-mode:normal;fill-rule:nonzero;stroke-linejoin:miter;stroke-miterlimit:10;stroke-dashoffset:0"
     transform="matrix(1.5695619,0,0,1.5696069,-169.15988,-53.134824)" />
  <g
     fill="none"
     stroke="none"
     stroke-width="0.637111"
     stroke-linecap="butt"
     stroke-dasharray="none"
     font-family="sans-serif"
     font-weight="normal"
     font-size="12px"
     text-anchor="start"
     id="g98"
     style="mix-blend-mode:normal;fill-rule:nonzero;stroke-linejoin:miter;stroke-miterlimit:10;stroke-dashoffset:0"
     transform="matrix(1.5695619,0,0,1.5696069,-169.15988,-53.134824)" />
  <g
     fill="none"
     stroke="none"
     stroke-width="0.637111"
     stroke-linecap="butt"
     stroke-dasharray="none"
     font-family="sans-serif"
     font-weight="normal"
     font-size="12px"
     text-anchor="start"
     id="g100"
     style="mix-blend-mode:normal;fill-rule:nonzero;stroke-linejoin:miter;stroke-miterlimit:10;stroke-dashoffset:0"
     transform="matrix(1.5695619,0,0,1.5696069,-169.15988,-53.134824)" />
  <g
     fill="none"
     stroke="none"
     stroke-width="0.637111"
     stroke-linecap="butt"
     stroke-dasharray="none"
     font-family="sans-serif"
     font-weight="normal"
     font-size="12px"
     text-anchor="start"
     id="g102"
     style="mix-blend-mode:normal;fill-rule:nonzero;stroke-linejoin:miter;stroke-miterlimit:10;stroke-dashoffset:0"
     transform="matrix(1.5695619,0,0,1.5696069,-169.15988,-53.134824)" />
  <g
     fill="none"
     stroke="none"
     stroke-width="0.637111"
     stroke-linecap="butt"
     stroke-dasharray="none"
     font-family="sans-serif"
     font-weight="normal"
     font-size="12px"
     text-anchor="start"
     id="g104"
     style="mix-blend-mode:normal;fill-rule:nonzero;stroke-linejoin:miter;stroke-miterlimit:10;stroke-dashoffset:0"
     transform="matrix(1.5695619,0,0,1.5696069,-169.15988,-53.134824)" />
  <g
     fill="none"
     stroke="none"
     stroke-width="0.637111"
     stroke-linecap="butt"
     stroke-dasharray="none"
     font-family="sans-serif"
     font-weight="normal"
     font-size="12px"
     text-anchor="start"
     id="g106"
     style="mix-blend-mode:normal;fill-rule:nonzero;stroke-linejoin:miter;stroke-miterlimit:10;stroke-dashoffset:0"
     transform="matrix(1.5695619,0,0,1.5696069,-169.15988,-53.134824)" />
  <g
     fill="none"
     stroke="none"
     stroke-width="0.637111"
     stroke-linecap="butt"
     stroke-dasharray="none"
     font-family="sans-serif"
     font-weight="normal"
     font-size="12px"
     text-anchor="start"
     id="g108"
     style="mix-blend-mode:normal;fill-rule:nonzero;stroke-linejoin:miter;stroke-miterlimit:10;stroke-dashoffset:0"
     transform="matrix(1.5695619,0,0,1.5696069,-169.15988,-53.134824)" />
  <g
     fill="none"
     stroke="none"
     stroke-width="0.637111"
     stroke-linecap="butt"
     stroke-dasharray="none"
     font-family="sans-serif"
     font-weight="normal"
     font-size="12px"
     text-anchor="start"
     id="g110"
     style="mix-blend-mode:normal;fill-rule:nonzero;stroke-linejoin:miter;stroke-miterlimit:10;stroke-dashoffset:0"
     transform="matrix(1.5695619,0,0,1.5696069,-169.15988,-53.134824)" />
  <g
     fill="none"
     stroke="none"
     stroke-width="0.637111"
     stroke-linecap="butt"
     stroke-dasharray="none"
     font-family="sans-serif"
     font-weight="normal"
     font-size="12px"
     text-anchor="start"
     id="g112"
     style="mix-blend-mode:normal;fill-rule:nonzero;stroke-linejoin:miter;stroke-miterlimit:10;stroke-dashoffset:0"
     transform="matrix(1.5695619,0,0,1.5696069,-169.15988,-53.134824)" />
  <g
     fill="none"
     stroke="none"
     stroke-width="0.637111"
     stroke-linecap="butt"
     stroke-dasharray="none"
     font-family="sans-serif"
     font-weight="normal"
     font-size="12px"
     text-anchor="start"
     id="g114"
     style="mix-blend-mode:normal;fill-rule:nonzero;stroke-linejoin:miter;stroke-miterlimit:10;stroke-dashoffset:0"
     transform="matrix(1.5695619,0,0,1.5696069,-169.15988,-53.134824)" />
  <g
     fill="#ffffff"
     stroke="none"
     stroke-width="0.562646"
     id="g126"
     style="font-family:none;mix-blend-mode:normal;fill-rule:nonzero;stroke-linecap:butt;stroke-linejoin:miter;stroke-miterlimit:10;stroke-dasharray:none;stroke-dashoffset:0"
     transform="matrix(1.7772888,0,0,1.7773398,-291.52247,-198.81847)">
    <path
       d="M 783.8,668.28333 H 764 v -108 h 21.75 l 66.3,78.9 v -78.9 H 872 v 108 h -21.75 l -66.45,-79.05 z"
       id="path118"
       style="stroke-width:0.562646" />
    <path
       d="M 663.8,668.28333 H 644 v -107.85 h 87 c 5.8,0 10.75,2.07333 14.85,6.22 4.1,4.15333 6.15,9.03 6.15,14.63 v 0 29.1 c 0,5.7 -2.05,10.6 -6.15,14.7 -4.1,4.1 -9.05,6.15 -14.85,6.15 v 0 h -5.85 l 26.7,31.5 v 5.55 h -21.6 l -31.05,-37.05 -35.4,0.15 z m 5.25,-57 v 0 h 57.75 c 2.7,0 4.22667,-0.15 4.58,-0.45 0.34667,-0.3 0.52,-1.85 0.52,-4.65 v 0 -20.7 c 0,-2.8 -0.17333,-4.37333 -0.52,-4.72 -0.35333,-0.35333 -1.88,-0.53 -4.58,-0.53 v 0 h -57.75 c -2.8,0 -4.37667,0.17667 -4.73,0.53 -0.34667,0.34667 -0.52,1.92 -0.52,4.72 v 0 20.7 c 0,2.8 0.17333,4.35 0.52,4.65 0.35333,0.3 1.93,0.45 4.73,0.45 z"
       id="path120"
       style="stroke-width:0.562646" />
    <path
       d="M 588.05,668.28333 H 568.1 v -88.05 H 524 v -19.95 h 108 v 19.95 h -43.95 z"
       id="path122"
       style="stroke-width:0.562646" />
    <path
       d="M 468.05,668.28333 H 448.1 v -88.05 H 404 v -19.95 h 108 v 19.95 h -43.95 z"
       id="path124"
       style="stroke-width:0.562646" />
  </g>
</svg>
