<svg version="1.1" xmlns="http://www.w3.org/2000/svg" xmlns:xlink="http://www.w3.org/1999/xlink" width="653.5" height="642.5" viewBox="294,90.28333,653.5,642.5"><g fill="none" fill-rule="nonzero" stroke="none" stroke-width="none" stroke-linecap="none" stroke-linejoin="miter" stroke-miterlimit="10" stroke-dasharray="none" stroke-dashoffset="0" font-family="none" font-weight="none" font-size="none" text-anchor="none" style="mix-blend-mode: normal"><g stroke="none" stroke-width="3" stroke-linecap="round" stroke-dasharray="4,10"><path transform="translate(144.5,-70.21667) scale(1.01,1.01)" d="M200,300v-100h100v100z" fill="none"/><path transform="translate(140.5,-70.21667) scale(1.01,1.01)" d="M600,300v-100h100v100z" fill="none"/><path transform="translate(139.5,-70.21667) scale(1.01,1.01)" d="M700,300v-100h100v100z" fill="none"/><path transform="translate(139.5,-74.21667) scale(1.01,1.01)" d="M700,700v-100h100v100z" fill="none"/><path transform="translate(141.5,-75.21667) scale(1.01,1.01)" d="M500,800v-100h100v100z" fill="#670295"/><path transform="translate(139.5,-75.21667) scale(1.01,1.01)" d="M700,800v-100h100v100z" fill="none"/><path transform="translate(140.5,-75.21667) scale(1.01,1.01)" d="M600,800v-100h100v100z" fill="none"/><path transform="translate(139.5,-71.21667) scale(1.01,1.01)" d="M700,400v-100h100v100z" fill="none"/><path transform="translate(139.5,-72.21667) scale(1.01,1.01)" d="M700,500v-100h100v100z" fill="#240038"/><path transform="translate(139.5,-73.21667) scale(1.01,1.01)" d="M700,600v-100h100v100z" fill="#240038"/><path transform="translate(140.5,-72.21667) scale(1.01,1.01)" d="M600,500v-100h100v100z" fill="#440069"/><path transform="translate(140.5,-71.21667) scale(1.01,1.01)" d="M600,400v-100h100v100z" fill="#240038"/><path transform="translate(140.5,-73.21667) scale(1.01,1.01)" d="M600,600v-100h100v100z" fill="#440069"/><path transform="translate(140.5,-74.21667) scale(1.01,1.01)" d="M600,700v-100h100v100z" fill="#240038"/><path transform="translate(141.5,-71.21667) scale(1.01,1.01)" d="M500,400v-100h100v100z" fill="#440069"/><path transform="translate(141.5,-72.21667) scale(1.01,1.01)" d="M500,500v-100h100v100z" fill="#670295"/><path transform="translate(142.5,-70.21667) scale(1.01,1.01)" d="M400,300v-100h100v100z" fill="#240038"/><path transform="translate(144.5,-71.21667) scale(1.01,1.01)" d="M200,400v-100h100v100z" fill="#240038"/><path transform="translate(143.5,-70.21667) scale(1.01,1.01)" d="M300,300v-100h100v100z" fill="#440069"/><path transform="translate(142.5,-72.21667) scale(1.01,1.01)" d="M400,500v-100h100v100z" fill="#670295"/><path transform="translate(141.5,-73.21667) scale(1.01,1.01)" d="M500,600v-100h100v100z" fill="#670295"/><path transform="translate(141.5,-74.21667) scale(1.01,1.01)" d="M500,700v-100h100v100z" fill="#440069"/><path transform="translate(142.5,-74.21667) scale(1.01,1.01)" d="M400,700v-100h100v100z" fill="#670295"/><path transform="translate(142.5,-75.21667) scale(1.01,1.01)" d="M400,800v-100h100v100z" fill="#440069"/><path transform="translate(143.5,-75.21667) scale(1.01,1.01)" d="M300,800v-100h100v100z" fill="#440069"/><path transform="translate(144.5,-75.21667) scale(1.01,1.01)" d="M200,800v-100h100v100z" fill="none"/><path transform="translate(144.5,-74.21667) scale(1.01,1.01)" d="M200,700v-100h100v100z" fill="#440069"/><path transform="translate(143.5,-74.21667) scale(1.01,1.01)" d="M300,700v-100h100v100z" fill="#670295"/><path transform="translate(142.5,-73.21667) scale(1.01,1.01)" d="M400,600v-100h100v100z" fill="#b239ff"/><path transform="translate(143.5,-73.21667) scale(1.01,1.01)" d="M300,600v-100h100v100z" fill="#670295"/><path transform="translate(144.5,-73.21667) scale(1.01,1.01)" d="M200,600v-100h100v100z" fill="#240038"/><path transform="translate(144.5,-72.21667) scale(1.01,1.01)" d="M200,500v-100h100v100z" fill="#240038"/><path transform="translate(143.5,-72.21667) scale(1.01,1.01)" d="M300,500v-100h100v100z" fill="#440069"/><path transform="translate(143.5,-71.21667) scale(1.01,1.01)" d="M300,400v-100h100v100z" fill="#240038"/><path transform="translate(142.5,-71.21667) scale(1.01,1.01)" d="M400,400v-100h100v100z" fill="#670295"/><path transform="translate(141.5,-70.21667) scale(1.01,1.01)" d="M500,300v-100h100v100z" fill="#440069"/></g><g fill="none" stroke="none" stroke-width="1" stroke-linecap="butt" stroke-dasharray="" font-family="sans-serif" font-weight="normal" font-size="12" text-anchor="start"/><g fill="none" stroke="none" stroke-width="1" stroke-linecap="butt" stroke-dasharray="" font-family="sans-serif" font-weight="normal" font-size="12" text-anchor="start"/><g fill="none" stroke="none" stroke-width="1" stroke-linecap="butt" stroke-dasharray="" font-family="sans-serif" font-weight="normal" font-size="12" text-anchor="start"/><g fill="none" stroke="none" stroke-width="1" stroke-linecap="butt" stroke-dasharray="" font-family="sans-serif" font-weight="normal" font-size="12" text-anchor="start"/><g fill="none" stroke="none" stroke-width="1" stroke-linecap="butt" stroke-dasharray="" font-family="sans-serif" font-weight="normal" font-size="12" text-anchor="start"/><g fill="none" stroke="none" stroke-width="1" stroke-linecap="butt" stroke-dasharray="" font-family="sans-serif" font-weight="normal" font-size="12" text-anchor="start"/><g fill="none" stroke="none" stroke-width="1" stroke-linecap="butt" stroke-dasharray="" font-family="sans-serif" font-weight="normal" font-size="12" text-anchor="start"/><g fill="none" stroke="none" stroke-width="1" stroke-linecap="butt" stroke-dasharray="" font-family="sans-serif" font-weight="normal" font-size="12" text-anchor="start"/><g fill="none" stroke="none" stroke-width="1" stroke-linecap="butt" stroke-dasharray="" font-family="sans-serif" font-weight="normal" font-size="12" text-anchor="start"/><g fill="none" stroke="none" stroke-width="1" stroke-linecap="butt" stroke-dasharray="" font-family="sans-serif" font-weight="normal" font-size="12" text-anchor="start"/><g fill="none" stroke="none" stroke-width="1" stroke-linecap="butt" stroke-dasharray="" font-family="sans-serif" font-weight="normal" font-size="12" text-anchor="start"/><g fill="none" stroke="none" stroke-width="1" stroke-linecap="butt" stroke-dasharray="" font-family="sans-serif" font-weight="normal" font-size="12" text-anchor="start"/><g fill="none" stroke="none" stroke-width="1" stroke-linecap="butt" stroke-dasharray="" font-family="sans-serif" font-weight="normal" font-size="12" text-anchor="start"/><g fill="none" stroke="none" stroke-width="1" stroke-linecap="butt" stroke-dasharray="" font-family="sans-serif" font-weight="normal" font-size="12" text-anchor="start"/><g fill="none" stroke="none" stroke-width="1" stroke-linecap="butt" stroke-dasharray="" font-family="sans-serif" font-weight="normal" font-size="12" text-anchor="start"/><g fill="none" stroke="none" stroke-width="1" stroke-linecap="butt" stroke-dasharray="" font-family="sans-serif" font-weight="normal" font-size="12" text-anchor="start"/><g fill="none" stroke="none" stroke-width="1" stroke-linecap="butt" stroke-dasharray="" font-family="sans-serif" font-weight="normal" font-size="12" text-anchor="start"/><g fill="none" stroke="none" stroke-width="1" stroke-linecap="butt" stroke-dasharray="" font-family="sans-serif" font-weight="normal" font-size="12" text-anchor="start"/><g fill="none" stroke="none" stroke-width="1" stroke-linecap="butt" stroke-dasharray="" font-family="sans-serif" font-weight="normal" font-size="12" text-anchor="start"/><g fill="none" stroke="none" stroke-width="1" stroke-linecap="butt" stroke-dasharray="" font-family="sans-serif" font-weight="normal" font-size="12" text-anchor="start"/><g stroke-linecap="butt" stroke-dasharray=""><path d="M297,693.28333v-600h600v600z" fill="none" stroke="#ffffff" stroke-width="6"/><g fill="#ffffff" stroke="none" stroke-width="1"><path d="M783.8,668.28333h-19.8v-108h21.75l66.3,78.9v-78.9h19.95v108h-21.75l-66.45,-79.05z"/><path d="M663.8,668.28333h-19.8v-107.85h87c5.8,0 10.75,2.07333 14.85,6.22c4.1,4.15333 6.15,9.03 6.15,14.63v0v29.1c0,5.7 -2.05,10.6 -6.15,14.7c-4.1,4.1 -9.05,6.15 -14.85,6.15v0h-5.85l26.7,31.5v5.55h-21.6l-31.05,-37.05l-35.4,0.15zM669.05,611.28333v0h57.75c2.7,0 4.22667,-0.15 4.58,-0.45c0.34667,-0.3 0.52,-1.85 0.52,-4.65v0v-20.7c0,-2.8 -0.17333,-4.37333 -0.52,-4.72c-0.35333,-0.35333 -1.88,-0.53 -4.58,-0.53v0h-57.75c-2.8,0 -4.37667,0.17667 -4.73,0.53c-0.34667,0.34667 -0.52,1.92 -0.52,4.72v0v20.7c0,2.8 0.17333,4.35 0.52,4.65c0.35333,0.3 1.93,0.45 4.73,0.45z"/><path d="M588.05,668.28333h-19.95v-88.05h-44.1v-19.95h108v19.95h-43.95z"/><path d="M468.05,668.28333h-19.95v-88.05h-44.1v-19.95h108v19.95h-43.95z"/></g></g></g></svg>