<?xml version="1.0" standalone="no"?>
<!DOCTYPE svg PUBLIC "-//W3C//DTD SVG 20010904//EN"
 "http://www.w3.org/TR/2001/REC-SVG-20010904/DTD/svg10.dtd">
<svg version="1.0" xmlns="http://www.w3.org/2000/svg"
 width="1024.000000pt" height="1024.000000pt" viewBox="0 0 1024.000000 1024.000000"
 preserveAspectRatio="xMidYMid meet">
<metadata>
Created by potrace 1.11, written by Peter Selinger 2001-2013
</metadata>
<g transform="translate(0.000000,1024.000000) scale(0.100000,-0.100000)"
fill="#000000" stroke="none">
<path d="M0 5120 l0 -5120 5120 0 5120 0 0 5120 0 5120 -5120 0 -5120 0 0
-5120z m3250 -2125 l0 -175 -392 -2 -393 -3 -3 -782 -2 -783 -175 0 -175 0 0
785 0 785 -395 0 -395 0 0 175 0 175 965 0 965 0 0 -175z m2130 0 l0 -175
-390 0 -390 0 -2 -782 -3 -783 -177 -3 -178 -2 0 785 0 785 -390 0 -390 0 0
175 0 175 960 0 960 0 0 -175z m1910 143 c60 -30 129 -92 166 -149 51 -81 55
-121 52 -471 l-3 -323 -28 -61 c-36 -77 -113 -155 -189 -189 -42 -19 -82 -28
-153 -33 l-96 -7 235 -278 236 -278 0 -50 0 -49 -192 0 -193 0 -275 330 -275
329 -317 1 -318 0 0 -330 0 -330 -175 0 -175 0 0 960 0 961 823 -3 822 -3 55
-27z m1400 -654 c316 -377 580 -690 587 -696 11 -8 13 126 13 686 l0 696 175
0 175 0 0 -960 0 -960 -190 0 -190 0 -92 109 c-51 60 -316 374 -588 698 l-495
590 -5 -696 -5 -696 -175 0 -175 0 -3 958 -2 957 197 0 198 -1 575 -685z"/>
<path d="M5960 2810 c-12 -8 -16 -48 -18 -242 -2 -128 0 -248 3 -266 l6 -32
597 2 597 3 3 266 2 267 -22 6 c-38 10 -1152 7 -1168 -4z"/>
</g>
</svg>
